<mxfile host="app.diagrams.net" modified="2021-06-16T14:49:50.911Z" agent="5.0 (Windows NT 10.0; Win64; x64) AppleWebKit/537.36 (KHTML, like Gecko) Chrome/91.0.4469.4 Safari/537.36" etag="sbtVdLHlnwSPq-62Y_DP" version="14.7.8" type="github">
  <diagram id="D_cQD6BWjVuRgGkZL-uX" name="Page-1">
    <mxGraphModel dx="1422" dy="762" grid="1" gridSize="10" guides="1" tooltips="1" connect="1" arrows="1" fold="1" page="1" pageScale="1" pageWidth="827" pageHeight="1169" math="0" shadow="0">
      <root>
        <mxCell id="0" />
        <mxCell id="1" parent="0" />
        <mxCell id="DKj8lUSPgt1X97HWmkG1-1" value="pkg" style="shape=umlFrame;whiteSpace=wrap;html=1;" vertex="1" parent="1">
          <mxGeometry x="240" y="110" width="350" height="490" as="geometry" />
        </mxCell>
        <mxCell id="DKj8lUSPgt1X97HWmkG1-2" value="presentation" style="shape=folder;fontStyle=1;spacingTop=10;tabWidth=40;tabHeight=14;tabPosition=left;html=1;" vertex="1" parent="1">
          <mxGeometry x="348" y="150" width="131" height="90" as="geometry" />
        </mxCell>
        <mxCell id="DKj8lUSPgt1X97HWmkG1-3" value="business logic" style="shape=folder;fontStyle=1;spacingTop=10;tabWidth=40;tabHeight=14;tabPosition=left;html=1;" vertex="1" parent="1">
          <mxGeometry x="348" y="290" width="131" height="90" as="geometry" />
        </mxCell>
        <mxCell id="DKj8lUSPgt1X97HWmkG1-4" value="data" style="shape=folder;fontStyle=1;spacingTop=10;tabWidth=40;tabHeight=14;tabPosition=left;html=1;" vertex="1" parent="1">
          <mxGeometry x="348" y="430" width="131" height="90" as="geometry" />
        </mxCell>
        <mxCell id="DKj8lUSPgt1X97HWmkG1-5" value="Use" style="endArrow=open;endSize=12;dashed=1;html=1;exitX=0;exitY=0;exitDx=0;exitDy=52;exitPerimeter=0;entryX=0;entryY=0;entryDx=100;entryDy=47;entryPerimeter=0;" edge="1" parent="1" source="DKj8lUSPgt1X97HWmkG1-3" target="DKj8lUSPgt1X97HWmkG1-6">
          <mxGeometry width="160" relative="1" as="geometry">
            <mxPoint x="330" y="390" as="sourcePoint" />
            <mxPoint x="490" y="390" as="targetPoint" />
          </mxGeometry>
        </mxCell>
        <mxCell id="DKj8lUSPgt1X97HWmkG1-6" value="Bert" style="shape=folder;fontStyle=1;spacingTop=10;tabWidth=40;tabHeight=14;tabPosition=left;html=1;" vertex="1" parent="1">
          <mxGeometry x="80" y="310" width="100" height="80" as="geometry" />
        </mxCell>
        <mxCell id="DKj8lUSPgt1X97HWmkG1-7" value="Bayes" style="shape=folder;fontStyle=1;spacingTop=10;tabWidth=40;tabHeight=14;tabPosition=left;html=1;" vertex="1" parent="1">
          <mxGeometry x="650" y="310" width="100" height="80" as="geometry" />
        </mxCell>
        <mxCell id="DKj8lUSPgt1X97HWmkG1-8" value="Use" style="endArrow=open;endSize=12;dashed=1;html=1;exitX=0;exitY=0;exitDx=131;exitDy=52;exitPerimeter=0;entryX=0;entryY=0;entryDx=0;entryDy=47;entryPerimeter=0;" edge="1" parent="1" source="DKj8lUSPgt1X97HWmkG1-3" target="DKj8lUSPgt1X97HWmkG1-7">
          <mxGeometry width="160" relative="1" as="geometry">
            <mxPoint x="330" y="390" as="sourcePoint" />
            <mxPoint x="490" y="390" as="targetPoint" />
          </mxGeometry>
        </mxCell>
        <mxCell id="DKj8lUSPgt1X97HWmkG1-9" value="Use" style="endArrow=open;endSize=12;dashed=1;html=1;exitX=0.5;exitY=1;exitDx=0;exitDy=0;exitPerimeter=0;entryX=0.008;entryY=0.656;entryDx=0;entryDy=0;entryPerimeter=0;" edge="1" parent="1" source="DKj8lUSPgt1X97HWmkG1-6" target="DKj8lUSPgt1X97HWmkG1-4">
          <mxGeometry width="160" relative="1" as="geometry">
            <mxPoint x="330" y="390" as="sourcePoint" />
            <mxPoint x="490" y="390" as="targetPoint" />
          </mxGeometry>
        </mxCell>
        <mxCell id="DKj8lUSPgt1X97HWmkG1-10" value="Use" style="endArrow=open;endSize=12;dashed=1;html=1;exitX=0.75;exitY=1;exitDx=0;exitDy=0;exitPerimeter=0;entryX=1;entryY=0.689;entryDx=0;entryDy=0;entryPerimeter=0;" edge="1" parent="1" source="DKj8lUSPgt1X97HWmkG1-7" target="DKj8lUSPgt1X97HWmkG1-4">
          <mxGeometry width="160" relative="1" as="geometry">
            <mxPoint x="330" y="390" as="sourcePoint" />
            <mxPoint x="490" y="390" as="targetPoint" />
          </mxGeometry>
        </mxCell>
      </root>
    </mxGraphModel>
  </diagram>
</mxfile>
